<?xml version="1.0" encoding="utf-8" ?><svg xmlns="http://www.w3.org/2000/svg" xmlns:xlink="http://www.w3.org/1999/xlink" width="224" height="224" viewBox="0 0 224 224"><path fill="#D3000E" d="M121.946 17.3819C125.431 17.2397 129.708 17.3599 133.269 17.3574L155.208 17.3511C171.047 17.3581 187.27 17.109 203.04 17.277C200.721 20.9643 195.272 25.7979 192.013 29.095L170.121 51.2626L51.2063 171.634L11.1854 212.247C11.4656 210.219 11.2893 206.924 11.2643 204.781C11.215 200.582 11.1911 196.382 11.1925 192.182L11.3573 142.772C11.3784 139.232 11.3256 135.683 11.3572 132.142C11.3929 128.158 10.8105 125.366 13.8205 122.242C20.8399 114.958 28.1338 107.961 35.253 100.775L77.4892 57.7926C83.8049 51.3559 90.2013 44.9854 96.4847 38.5185C102.84 31.9773 109.033 25.2583 115.766 19.0822C116.379 18.5195 117.258 17.9592 117.972 17.5173L121.946 17.3819Z"/><path fill="#757474" d="M121.678 114.658C122.526 114.963 123.167 115.333 123.795 115.988C127.487 119.835 131.198 123.685 134.934 127.485L158.301 151.026L198.835 192.345C204.679 198.252 210.821 203.785 216.634 209.793C208.498 209.502 200.355 209.426 192.215 209.565C186.671 209.625 180.53 209.898 175.062 209.777C173.414 209.84 171.446 209.81 169.782 209.761C157.153 209.393 143.995 210.215 131.437 209.631C128.636 208.014 124.228 202.665 121.725 200.146L98.5465 176.92C93.7136 172.066 88.9849 167.116 84.0682 162.347C82.563 160.887 80.879 159.367 79.5899 157.725C80.1307 156.584 80.9197 155.528 81.7941 154.621C92.5305 143.486 103.656 132.736 114.463 121.67C116.397 119.69 119.409 115.961 121.678 114.658Z"/><path fill="#757474" d="M14.0289 17.1126L71.4751 17.3754C71.609 25.4634 71.0575 33.6926 71.366 41.834C71.4082 42.9463 71.2919 47.1393 70.7468 47.8962C68.5215 50.9859 64.693 54.5982 61.9917 57.3638L40.2752 79.3455C33.1232 86.516 25.8968 93.6025 19.0299 101.044C16.7568 103.507 14.1933 105.852 11.7335 108.129C11.3439 101.32 11.452 93.849 11.4149 87.0001C11.3143 75.8282 11.3006 64.6556 11.3737 53.4834L11.4435 30.971C11.4357 28.7297 11.0223 18.9996 11.8064 17.7948C12.4646 17.2029 13.1414 17.2186 14.0289 17.1126Z"/></svg>